<?xml version="1.0" standalone="no"?>
<!DOCTYPE svg PUBLIC "-//W3C//DTD SVG 20010904//EN"
 "http://www.w3.org/TR/2001/REC-SVG-20010904/DTD/svg10.dtd">
<svg version="1.0" xmlns="http://www.w3.org/2000/svg"
 width="260.000000pt" height="260.000000pt" viewBox="0 0 260.000000 260.000000"
 preserveAspectRatio="xMidYMid meet">
<metadata>
Created by potrace 1.14, written by Peter Selinger 2001-2017
</metadata>
<g transform="translate(0.000000,260.000000) scale(0.100000,-0.100000)"
fill="#000000" stroke="none">
<path d="M1695 2590 c-110 -21 -197 -41 -266 -59 -44 -13 -102 -21 -140 -20
-156 3 -182 0 -233 -25 -38 -18 -88 -29 -196 -41 -127 -15 -187 -25 -390 -66
-198 -40 -385 -126 -444 -204 -23 -29 -26 -44 -26 -107 0 -68 2 -77 28 -101
15 -14 44 -33 64 -41 42 -18 150 -21 179 -6 10 6 19 8 19 6 0 -7 -84 -110
-111 -137 -12 -12 -27 -36 -35 -55 -16 -39 -19 -67 -4 -44 6 9 10 10 10 3 0
-6 -4 -14 -9 -17 -8 -5 -17 -71 -25 -180 -5 -60 -23 -79 -75 -79 l-41 0 0
-579 c0 -440 3 -577 12 -572 8 5 9 2 2 -12 -5 -10 -10 -72 -12 -136 l-3 -118
33 0 33 0 35 110 c19 60 38 110 42 110 3 0 10 -49 13 -110 l8 -110 38 0 c36 0
39 2 40 28 l1 27 7 -25 c10 -38 57 -41 71 -4 6 15 8 34 5 42 -3 8 -1 20 3 26
5 6 12 23 16 38 3 16 13 28 21 28 11 0 14 -7 9 -25 -4 -15 -2 -25 4 -25 13 0
21 24 26 80 4 44 3 44 -9 16 -12 -29 -13 -29 -24 -8 -7 13 -8 22 -2 22 5 0 9
24 9 53 -1 91 19 119 57 81 12 -12 19 -14 27 -6 8 8 0 17 -26 33 -25 15 -34
24 -25 29 6 5 9 16 5 25 -5 14 -1 16 24 10 36 -8 40 2 6 15 l-24 9 19 83 c10
46 19 90 19 98 1 13 2 12 10 -1 6 -11 5 -37 -2 -73 -10 -46 -10 -59 1 -65 9
-6 13 -43 12 -145 0 -75 -3 -147 -7 -160 -3 -12 -6 -64 -7 -114 l-2 -92 227 0
227 0 3 27 c2 14 8 28 15 30 8 3 10 -6 8 -26 l-4 -31 132 0 c88 0 137 4 145
12 8 8 15 8 24 0 16 -13 998 -18 998 -5 0 5 -7 31 -16 58 -21 68 -27 228 -9
271 7 18 12 34 10 36 -2 2 5 4 15 4 11 0 20 -3 20 -6 0 -8 -32 -54 -43 -61 -5
-4 -5 -9 0 -12 5 -3 24 16 42 43 32 48 36 80 9 80 -9 0 -9 -3 2 -10 28 -17 -3
-27 -45 -15 -25 8 -34 15 -25 18 8 3 22 8 30 10 8 3 3 6 -13 6 l-27 1 4 79 c4
73 8 83 52 150 44 66 50 71 83 71 20 0 43 5 51 10 11 7 1 10 -35 12 -44 1 -45
2 -12 5 42 5 41 1 42 128 3 286 6 355 15 355 6 0 10 -33 9 -83 -1 -107 0 -121
7 -115 3 4 8 21 10 40 3 18 13 60 21 93 9 33 17 76 19 95 1 19 3 44 3 55 1 15
6 11 17 -14 26 -61 34 -66 61 -34 21 25 22 25 9 3 -12 -19 -13 -34 -6 -65 5
-22 10 -89 10 -150 2 -207 4 -250 17 -250 6 0 15 -3 19 -7 4 -5 0 -8 -9 -8
-10 0 -17 -7 -17 -15 0 -8 9 -15 19 -15 18 0 19 10 19 232 0 185 -3 234 -14
245 -8 8 -14 20 -13 26 0 9 2 8 6 0 13 -33 23 -7 21 55 -1 45 -3 54 -5 27 -6
-53 -18 -64 -31 -26 l-11 30 -83 -5 -84 -6 -2 38 c-2 21 -5 40 -7 43 -3 2 0
10 6 17 7 8 7 14 -1 19 -5 3 -10 26 -10 50 0 42 1 44 42 57 23 7 50 26 62 41
l21 28 -23 42 c-12 23 -22 49 -22 57 0 8 -9 29 -20 45 -11 17 -20 38 -20 47 0
9 -11 30 -25 46 -14 17 -25 35 -25 41 0 6 -13 25 -30 43 -16 17 -30 36 -30 42
0 15 -124 132 -187 177 l-51 36 51 13 c121 30 202 93 213 166 11 77 -20 130
-107 182 -35 21 -48 22 -260 21 -123 -1 -242 -5 -264 -9z m384 -143 c60 -21
49 -35 -35 -42 -75 -7 -108 -2 -194 33 -42 17 183 26 229 9z m-1630 -269 c-44
-34 -98 -58 -166 -72 -37 -8 -70 -13 -72 -11 -17 18 64 57 174 85 80 21 92 20
64 -2z m901 -188 c0 -5 -2 -10 -4 -10 -3 0 -8 5 -11 10 -3 6 -1 10 4 10 6 0
11 -4 11 -10z m25 -80 c-4 -13 1 -20 16 -25 21 -7 21 -9 6 -20 -28 -20 -20
-25 46 -25 186 -1 359 -49 479 -133 33 -23 78 -53 99 -67 90 -59 169 -114 166
-116 -2 -2 -25 3 -52 11 -62 19 -251 21 -258 3 -10 -30 6 -38 77 -38 96 0 179
-16 239 -47 27 -13 55 -22 62 -20 7 3 22 -13 36 -36 23 -40 24 -52 27 -252 4
-245 -3 -296 -59 -413 -47 -98 -147 -205 -242 -261 -128 -75 -353 -130 -481
-116 -185 19 -340 64 -525 152 -62 29 -179 76 -260 104 -80 28 -175 65 -211
82 -78 39 -184 138 -192 181 -11 54 23 105 68 106 27 0 56 -33 82 -92 30 -68
95 -95 167 -68 40 15 49 52 50 200 1 159 9 191 72 286 116 174 248 309 403
414 47 32 106 77 169 130 23 19 23 21 7 39 -9 10 -14 25 -10 34 8 23 26 10 19
-13z m976 -667 c-8 -14 -10 -8 -11 28 0 25 3 49 8 53 11 12 14 -62 3 -81z m74
-12 c-6 -5 -54 52 -54 64 0 6 13 -6 28 -25 16 -19 28 -37 26 -39z m-2289 -202
c-8 -19 -15 -29 -15 -22 -1 18 19 67 25 61 3 -3 -2 -21 -10 -39z m2217 -226
c-15 -3 -20 -9 -17 -21 5 -15 4 -15 -5 -2 -17 24 -13 30 17 29 22 -1 23 -2 5
-6z m-1973 -131 c0 -22 -24 -89 -37 -103 -8 -9 -18 -30 -23 -45 -7 -22 -9 -12
-7 44 1 39 -1 72 -5 72 -12 0 -10 38 3 61 10 19 10 19 40 -1 16 -12 29 -24 29
-28z m765 -260 c-3 -3 -11 0 -18 7 -9 10 -8 11 6 5 10 -3 15 -9 12 -12z m-31
-26 c-5 -20 0 -28 23 -41 26 -15 20 -15 -24 1 -17 6 -17 6 0 -12 12 -13 32
-19 62 -19 35 0 50 6 77 31 32 30 34 30 83 19 l50 -11 1 -50 c2 -71 3 -74 14
-74 6 0 10 27 10 60 l0 60 33 -8 c17 -4 85 -7 150 -7 l119 0 -4 -58 c-2 -31
-1 -59 2 -60 3 -2 0 -3 -6 -1 -7 1 -23 -9 -37 -24 -13 -15 -39 -40 -56 -55
-31 -29 -47 -72 -16 -47 11 9 19 9 35 -3 14 -9 17 -17 11 -22 -6 -3 -11 -2
-11 4 0 5 -9 8 -20 6 -30 -6 -46 3 -47 25 -1 12 3 18 8 14 6 -3 5 3 -3 15 -7
12 -16 21 -20 21 -5 0 -10 0 -13 0 -16 0 -147 73 -152 85 -8 23 -18 18 -35
-19 -14 -29 -25 -36 -85 -54 -112 -33 -261 -64 -290 -60 l-28 3 39 23 39 23
-22 23 -21 22 43 65 c24 35 54 83 67 107 27 48 33 52 24 18z m857 -94 c18 -35
20 -52 14 -98 -6 -51 -8 -54 -28 -48 -26 8 -36 22 -37 49 -1 11 -5 58 -9 105
-5 47 -7 89 -4 93 5 8 27 -26 64 -101z m-104 66 c-3 -13 -11 -59 -18 -103 -6
-44 -13 -81 -14 -83 -8 -10 -40 17 -70 60 -27 36 -35 58 -33 81 3 28 8 32 63
48 80 22 78 22 72 -3z m-1612 -168 c3 -5 1 -10 -4 -10 -6 0 -11 5 -11 10 0 6
2 10 4 10 3 0 8 -4 11 -10z m1296 -57 c13 -16 12 -17 -3 -4 -10 7 -18 15 -18
17 0 8 8 3 21 -13z m-3 -41 c2 -7 -1 -12 -8 -12 -6 0 -9 -4 -5 -9 3 -5 1 -12
-4 -15 -11 -7 -54 30 -48 41 8 13 60 8 65 -5z m69 -48 c-9 -9 -28 6 -21 18 4
6 10 6 17 -1 6 -6 8 -13 4 -17z"/>
<path d="M1196 1494 c-105 -29 -273 -106 -282 -129 -4 -9 -2 -21 4 -27 8 -8
36 0 100 30 85 40 246 92 282 92 28 0 45 27 30 45 -16 19 -27 18 -134 -11z"/>
<path d="M1978 1384 c-27 -14 -38 -34 -19 -34 5 0 22 7 37 15 39 20 72 19 119
-5 46 -23 45 -23 45 -10 0 6 -15 19 -32 30 -39 24 -111 26 -150 4z"/>
<path d="M1163 1289 c-40 -20 -81 -65 -69 -76 3 -3 24 11 47 31 37 35 45 37
95 35 62 -3 79 6 40 21 -40 15 -66 12 -113 -11z"/>
<path d="M1960 1295 c-55 -17 -136 -83 -121 -98 6 -6 23 1 51 23 22 18 43 30
45 28 3 -2 0 -33 -6 -69 -25 -150 37 -363 112 -391 40 -15 93 8 117 50 46 82
68 262 43 350 -6 19 -6 32 -1 32 18 0 41 -48 49 -106 l9 -59 2 45 c4 69 2 93
-11 100 -8 6 -8 9 0 14 6 4 11 12 11 18 0 6 -6 6 -15 -2 -13 -11 -20 -9 -43
12 -63 59 -158 80 -242 53z m190 -44 c46 -32 66 -190 30 -229 -26 -27 -42 -28
-64 -3 -30 33 -45 92 -46 179 l0 82 28 -6 c15 -3 38 -14 52 -23z m-160 -46
c-5 -32 -7 -61 -5 -64 3 -2 -1 -11 -9 -20 -8 -9 -16 -25 -19 -36 -2 -11 -5 5
-6 35 -1 66 13 130 30 141 19 11 20 9 9 -56z m45 -105 c7 -23 -10 -50 -31 -50
-20 0 -34 31 -23 52 13 24 46 23 54 -2z m-44 -77 c6 -17 5 -30 -5 -44 -12 -18
-14 -17 -20 18 -3 21 -6 44 -6 51 0 20 20 4 31 -25z m50 -52 c-12 -22 -36 -28
-46 -12 -3 6 5 19 17 30 26 25 45 13 29 -18z m139 -13 c-19 -81 -51 -120 -95
-120 -30 0 -57 21 -84 68 -18 31 -19 34 -3 31 10 -1 28 -13 40 -25 12 -12 26
-22 31 -22 13 0 61 59 61 75 0 8 12 16 28 18 15 2 28 5 28 6 1 0 -2 -14 -6
-31z"/>
<path d="M1263 1230 c-53 -11 -114 -42 -181 -92 -51 -38 -54 -39 -73 -22 -23
21 -25 8 -2 -18 24 -27 -5 -24 -34 4 -13 12 -23 17 -23 12 0 -14 22 -41 40
-48 8 -3 -2 -5 -22 -3 -51 4 -49 -11 2 -19 33 -5 41 -12 47 -33 8 -33 43 -104
49 -99 2 3 -3 21 -11 41 -23 55 -19 109 9 129 l24 17 7 -55 c14 -114 76 -257
119 -274 18 -7 18 -9 3 -9 -35 -2 -5 -21 31 -21 48 0 191 26 200 35 4 4 -6 5
-21 1 l-29 -7 21 29 c65 91 73 231 21 350 -10 23 -15 42 -10 42 6 0 33 -9 62
-20 97 -37 125 -16 35 25 -89 41 -175 52 -264 35z m156 -92 c33 -64 41 -134
19 -156 -7 -7 -28 -12 -48 -12 -57 0 -107 64 -130 166 -13 58 -7 64 72 64 l56
0 31 -62z m-234 -32 c0 -31 -6 -60 -12 -67 -24 -24 -8 -89 22 -89 19 0 29 -18
17 -33 -5 -7 -11 -21 -14 -33 -5 -18 -1 -20 25 -19 17 1 43 -5 58 -14 27 -15
29 -15 59 14 17 16 33 39 36 50 3 12 20 28 38 36 l33 15 -9 -35 c-27 -96 -76
-151 -136 -151 -80 0 -137 74 -167 218 -21 101 -19 117 13 141 15 11 29 20 32
21 3 0 5 -25 5 -54z m43 -68 c25 -25 8 -78 -25 -78 -7 0 -19 11 -25 25 -9 21
-8 28 7 45 21 23 27 24 43 8z m52 -123 c0 -19 -37 -38 -58 -30 -15 6 -13 10
11 31 29 25 47 24 47 -1z"/>
<path d="M1828 666 c-34 -47 -214 -70 -256 -33 -11 10 -23 14 -26 9 -10 -17
29 -42 75 -48 85 -11 239 41 239 82 0 20 -13 17 -32 -10z"/>
<path d="M2478 1260 c-2 -8 4 -43 14 -79 10 -36 18 -80 18 -98 0 -51 18 -48
22 5 3 41 -6 171 -10 148 -1 -4 -10 2 -21 15 -13 17 -19 19 -23 9z"/>
<path d="M2450 1060 c0 -5 7 -10 16 -10 8 0 12 5 9 10 -3 6 -10 10 -16 10 -5
0 -9 -4 -9 -10z"/>
<path d="M2450 1020 c-8 -5 -24 -12 -35 -15 -13 -5 -15 -9 -7 -12 7 -3 12 -23
12 -49 l0 -44 48 -1 c34 0 41 -3 27 -8 -11 -5 -32 -6 -47 -4 -16 2 -28 0 -28
-6 0 -6 6 -11 13 -12 6 0 20 -2 29 -4 10 -2 20 1 24 6 3 5 8 7 12 5 4 -2 13 2
20 10 9 10 9 14 1 14 -7 0 -9 18 -6 55 4 47 2 55 -12 55 -9 0 -21 4 -26 9 -6
5 -17 5 -25 1z m30 -24 c0 -11 -19 -15 -25 -6 -3 5 1 10 9 10 9 0 16 -2 16 -4z
m-13 -63 c-3 -10 -5 -4 -5 12 0 17 2 24 5 18 2 -7 2 -21 0 -30z"/>
<path d="M2438 848 c-21 -7 -27 -15 -24 -31 3 -12 5 -43 5 -69 l1 -48 45 0 45
0 1 50 c1 28 2 60 2 72 2 27 -35 39 -75 26z"/>
<path d="M2545 750 c3 -5 17 -10 31 -10 13 0 24 5 24 10 0 6 -14 10 -31 10
-17 0 -28 -4 -24 -10z"/>
<path d="M2282 632 c2 -28 1 -54 -2 -55 -3 -2 2 -2 10 1 16 5 32 5 68 1 14 -2
22 -10 22 -24 0 -16 2 -17 9 -5 6 8 7 18 5 22 -3 4 11 8 30 8 24 0 36 -5 36
-14 0 -8 7 -17 16 -20 13 -5 15 -2 11 14 -4 17 0 20 24 20 19 0 29 -5 29 -15
0 -8 7 -15 15 -15 8 0 14 3 14 8 -4 22 3 34 16 28 12 -4 15 5 15 49 l0 54
-161 -2 -160 -2 3 -53z m118 38 c0 -5 -4 -10 -10 -10 -5 0 -10 5 -10 10 0 6 5
10 10 10 6 0 10 -4 10 -10z"/>
<path d="M2240 560 c0 -11 5 -20 10 -20 6 0 10 9 10 20 0 11 -4 20 -10 20 -5
0 -10 -9 -10 -20z"/>
<path d="M2307 560 c-3 -13 0 -20 9 -20 8 0 14 9 14 20 0 11 -4 20 -9 20 -5 0
-11 -9 -14 -20z"/>
<path d="M2458 493 c17 -2 47 -2 65 0 17 2 3 4 -33 4 -36 0 -50 -2 -32 -4z"/>
<path d="M2293 483 c-16 -6 -17 -45 -1 -61 16 -16 28 -15 28 3 0 8 5 15 10 15
6 0 10 -8 10 -17 0 -15 2 -15 14 2 13 18 14 17 30 -13 18 -35 31 -40 40 -16
10 26 7 32 -16 36 -13 2 -21 6 -18 9 3 3 -1 13 -9 23 -10 12 -17 13 -26 6 -9
-8 -15 -8 -20 0 -5 8 -11 7 -23 -2 -13 -11 -15 -10 -9 5 3 9 5 17 4 16 -1 0
-8 -3 -14 -6z"/>
<path d="M2430 470 c0 -5 7 -10 16 -10 8 0 12 5 9 10 -3 6 -10 10 -16 10 -5 0
-9 -4 -9 -10z"/>
<path d="M2470 470 c0 -5 5 -10 10 -10 6 0 10 5 10 10 0 6 -4 10 -10 10 -5 0
-10 -4 -10 -10z"/>
<path d="M2510 471 c0 -5 7 -11 14 -14 10 -4 13 -1 9 9 -6 15 -23 19 -23 5z"/>
<path d="M2545 470 c3 -5 10 -10 16 -10 5 0 9 5 9 10 0 6 -7 10 -16 10 -8 0
-12 -4 -9 -10z"/>
<path d="M2410 352 c0 -2 5 -13 11 -25 9 -20 9 -20 -4 -4 -20 25 -25 22 -32
-20 -4 -21 -11 -59 -17 -85 -10 -40 -9 -53 7 -88 10 -23 24 -39 31 -36 8 3 10
-2 6 -16 -5 -19 -7 -17 -26 15 -31 55 -33 53 -52 -55 -4 -25 -2 -38 5 -38 6 0
11 5 11 10 0 6 5 10 11 10 5 0 7 -5 4 -10 -4 -6 8 -10 28 -10 34 0 35 2 48 53
7 28 13 55 14 59 0 3 3 10 8 14 4 4 7 14 7 23 0 12 -6 9 -23 -9 -12 -14 -18
-20 -14 -14 5 8 1 23 -8 38 -20 31 -23 31 -42 9 -13 -16 -13 -16 -3 6 7 12 10
31 7 41 -3 11 0 17 7 14 10 -4 49 48 43 57 -2 2 8 15 21 29 l25 25 -18 -31
c-17 -29 -17 -33 -1 -55 l16 -23 0 32 c0 17 5 32 10 32 6 0 10 -9 10 -20 0
-11 4 -20 9 -20 20 0 21 20 5 52 l-17 33 25 -25 c13 -14 23 -28 22 -31 -5 -9
32 -60 39 -53 3 3 5 -3 4 -15 -1 -11 -4 -21 -7 -21 -3 0 -14 -13 -23 -30 -17
-27 -17 -31 -1 -55 9 -13 20 -23 24 -20 5 3 8 -3 7 -14 0 -10 -9 -24 -19 -30
-16 -10 -17 -9 -7 7 9 15 7 25 -12 55 -23 35 -39 47 -39 29 0 -5 3 -12 7 -16
4 -3 8 -12 10 -19 23 -103 25 -107 48 -107 l23 0 -2 170 c-1 140 -4 172 -16
180 -13 8 -170 10 -170 2z m153 -27 c-3 -9 -8 -14 -10 -11 -3 3 -2 9 2 15 9
16 15 13 8 -4z"/>
<path d="M2425 244 c-16 -25 -16 -29 0 -63 14 -31 18 -33 26 -18 6 10 14 15
19 12 16 -10 18 23 4 51 -23 45 -30 47 -49 18z"/>
<path d="M2519 257 c-20 -15 -18 -75 2 -88 14 -9 49 24 49 46 0 6 -8 20 -18
32 -14 18 -20 20 -33 10z"/>
<path d="M2480 113 c0 -11 7 -27 16 -34 15 -12 16 -11 9 11 -10 35 -25 49 -25
23z"/>
<path d="M382 80 c0 -14 2 -19 5 -12 2 6 2 18 0 25 -3 6 -5 1 -5 -13z"/>
<path d="M2495 43 c-5 -12 -9 -14 -12 -5 -3 6 -10 12 -16 12 -8 0 -8 -3 1 -12
9 -9 9 -15 -1 -27 -11 -14 -10 -15 7 -1 15 11 20 12 23 3 3 -7 12 -13 21 -13
15 1 14 2 -2 11 -11 7 -14 14 -8 18 6 4 7 12 3 20 -6 10 -10 8 -16 -6z"/>
</g>
</svg>
